
        <svg xmlns="http://www.w3.org/2000/svg" xmlns:xlink="http://www.w3.org/1999/xlink" version="1.1" width="3162.08104052026" 
        height="568.0410977029601" viewBox="0 0 3162.08104052026 568.0410977029601">
			
			<g transform="scale(8.104052026013006) translate(10, 10)">
				<defs id="SvgjsDefs3270"><linearGradient id="SvgjsLinearGradient3275"><stop id="SvgjsStop3276" stop-color="#7f00ff" offset="0"></stop><stop id="SvgjsStop3277" stop-color="#e100ff" offset="1"></stop></linearGradient><linearGradient id="SvgjsLinearGradient3278"><stop id="SvgjsStop3279" stop-color="#7f00ff" offset="0"></stop><stop id="SvgjsStop3280" stop-color="#e100ff" offset="1"></stop></linearGradient></defs><g id="SvgjsG3271" featureKey="symbolFeature-0" transform="matrix(0.720158198953969,0,0,0.720158198953969,-3.6003373657621154,-9.12021429098776)" fill="url(#SvgjsLinearGradient3275)"><g xmlns="http://www.w3.org/2000/svg"><path d="M71.567,50.647c0.061-0.448-0.102-0.935-0.2-1.395c-0.118-0.552-0.388-1.092-0.404-1.643   c-0.115-4.142-0.184-8.284-0.267-12.427c-0.014-0.681,0.037-1.291,0.586-1.847c0.526-0.532,0.573-1.215-0.107-1.765   c-0.111-0.09-0.291-0.176-0.31-0.286c-0.249-1.436-1.323-1.493-2.421-1.426c-1.621,0.1-3.24,0.241-4.856,0.404   c-0.837,0.084-1.464,0.479-1.548,1.475c-1.099,0.19-2.056,0.306-2.984,0.536c-0.497,0.123-0.965,0.41-1.412,0.68   c-0.532,0.322-0.667,0.87-0.421,1.391c0.768,1.624,0.745,3.369,0.819,5.087c0.306,7.084-0.422,14.129-0.869,21.184   c-0.174,2.737-0.378,5.473-0.542,8.211c-0.057,0.961-0.037,1.927-0.048,2.891c-0.027,2.312-0.072,4.624-0.051,6.935   c0.003,0.31,0.326,0.866,0.535,0.883c0.85,0.071,1.793,0.176,2.549-0.12c0.646-0.253,1.161-0.296,1.782-0.151   c0.703,0.164,1.412,0.32,2.128,0.404c0.768,0.09,1.345,0.425,1.63,1.004c1.417,0.185,2.736,0.159,3.871-0.49   c1.025-0.586,2.033-1.31,2.804-2.188c0.393-0.448,0.313-1.366,0.336-2.075c0.141-4.485-0.146-8.955-0.433-13.429   C71.479,58.55,71.026,54.605,71.567,50.647z"></path><path d="M51.689,73.605c-0.371-5.052-0.696-10.111-0.859-15.173c-0.173-5.359,0.194-10.708,0.774-16.039   c0.162-1.486,0.37-2.967,0.55-4.451c0.175-1.442-0.41-2.086-1.853-2.046c-0.192,0.005-0.384,0.036-0.576,0.06   c-1.479,0.187-2.954,0.429-4.439,0.549c-1.786,0.144-3.339,0.948-4.897,1.68c-1.257,0.59-1.282,1.272-0.399,2.334   c-0.441,0.49-0.878,0.977-1.301,1.447c0.187,0.927,1.434,1.29,0.919,2.562c-0.809,0.175-1.022,0.77-0.932,1.599   c0.145,1.344,0.231,2.694,0.34,4.042c0.27,3.363,0.584,6.722,0.798,10.089c0.336,5.294,0.6,10.593,0.904,15.889   c0.066,1.152,0.174,2.301,0.26,3.452c0.054,0.725,0.162,1.34,1.159,1.268c0.306-0.022,0.732,0.243,0.943,0.505   c0.767,0.95,0.849,1.025,2.012,0.615c1.784-0.629,3.546-1.117,5.506-0.886c1.78,0.21,2.491-0.934,2.041-2.689   C52.234,76.831,51.808,75.223,51.689,73.605z"></path><path d="M32.901,52.496c-0.52-0.456-1.219-0.707-1.839-1.049c-0.766-0.423-1.952-0.29-2.557,0.34   c-0.249,0.259-0.398,0.613-0.632,0.986c-1.449-0.777-2.65-0.624-3.525,0.799c-0.047,0.077-0.14,0.147-0.226,0.176   c-0.933,0.32-0.945,1.003-0.894,1.859c0.289,4.858,0.643,9.717,0.714,14.58c0.046,3.175-0.042,6.344,0.395,9.501   c0.169,1.221,0.416,1.494,1.596,1.404c0.379-0.029,0.75-0.158,1.125-0.24c2.015-0.437,4.009-1.055,6.113-0.499   c0.696,0.184,1.301-0.121,1.817-0.519c0-1.269,0.028-2.473-0.006-3.675c-0.059-2.072-0.229-4.143-0.22-6.214   c0.016-3.857,0.149-7.713,0.181-11.57c0.009-1.041-0.171-2.084-0.262-3.101c0.81-0.522,2.085-0.418,2.019-1.819   c-0.555-0.51-1.245-0.46-1.912-0.484C34.124,52.949,33.491,53.014,32.901,52.496z"></path><path d="M41.619,31.976c0.867-0.311,1.129-0.821,0.947-1.696c-0.225-1.081-0.439-2.182-0.832-3.208   c-1.086-2.835-2.253-5.64-3.409-8.448c-0.433-1.052-0.809-1.246-1.875-1.107c-1.537,0.201-1.897,0.644-1.858,2.502   c-1.251,0.346-1.334,1.225-1.086,2.289c0.094,0.403,0.214,1.037,0.007,1.232c-0.951,0.899-0.239,1.576,0.188,2.289   c0.221,0.369,0.517,0.699,0.807,1.02c1.236,1.366,2.333,2.823,3.152,4.487c0.293,0.596,0.649,1.309,1.449,1.228   C39.958,32.478,40.813,32.265,41.619,31.976z"></path><path d="M75.384,13.599c-0.272,0.007-0.549,0.156-0.809,0.272c-0.391,0.174-0.769,0.375-1.313,0.643   c-0.202-0.457-0.321-0.763-0.469-1.054c-0.361-0.708-1.228-1.048-1.798-0.581c-0.62,0.507-1.26,1.1-1.616,1.796   c-0.942,1.843-1.772,3.746-2.572,5.657c-0.464,1.107-0.836,2.259-1.151,3.418c-0.255,0.938,0.011,1.203,0.858,1.722   c0.803,0.492,1.603,0.126,2.4,0.189c0.704,0.056,1.178-0.352,1.541-0.898c0.904-1.36,1.794-2.73,2.696-4.091   c0.131-0.198,0.269-0.421,0.46-0.545c1.642-1.071,2.632-2.644,3.415-4.379c0.248-0.549,0.842-1.089,0.378-1.72   C76.905,13.35,76.087,13.58,75.384,13.599z"></path><path d="M82.763,37.098c0.61-0.562,1.471-0.876,2.255-1.219c0.698-0.305,1.48-0.424,2.164-0.752   c1.598-0.767,3.226-1.511,4.391-2.935c0.529-0.646,0.447-1.363-0.228-1.82c-0.227-0.154-0.486-0.261-0.764-0.406   c0.194-0.258,0.348-0.443,0.48-0.642c0.632-0.952,0.428-1.548-0.662-1.765c-0.648-0.129-1.296-0.201-1.957,0.164   c-0.71,0.392-1.506,0.63-2.264,0.936c-2.887,1.166-5.417,2.904-7.826,4.843c-0.458,0.368-0.822,0.855-0.471,1.337   c0.257,0.352,0.85,0.5,1.323,0.637c0.229,0.066,0.526-0.102,0.815-0.17c-0.02,0.946-1.368,1.246-0.954,2.311   C80.418,38.215,81.6,38.169,82.763,37.098z"></path><path d="M51.477,13.671c-0.949,0.13-1.306,0.74-1.481,1.54c-0.204,0.931-0.213,1.923-1.081,2.591   c-0.147,0.114-0.183,0.446-0.177,0.674c0.092,3.129,0.2,6.257,0.304,9.368c1.436,0.837,2.738,0.552,4.055-0.051   c1.188-0.544,1.015-1.641,1.103-2.616c0.201-2.207,0.425-4.416,0.509-6.629c0.054-1.418,0.135-2.873-0.922-4.108   C53.127,13.665,52.405,13.543,51.477,13.671z"></path><path d="M25.652,38.307c0.534-0.326,1.037-0.373,1.608-0.458c1.053-0.157,2.076-0.474,2.278-1.888   c-0.652-0.469-1.436-0.835-1.942-1.435c-1.65-1.956-3.726-3.332-5.907-4.576c-0.534-0.305-1.159-0.533-1.766-0.613   c-2.073-0.276-2.952,0.75-2.4,2.854c-0.392,0.239-0.758,0.396-1.03,0.651c-0.191,0.179-0.358,0.494-0.358,0.748   c0.002,0.838,1.636,2.165,2.397,1.832c1.046-0.457,1.625,0.017,2.259,0.683c0.566,0.594,1.19,1.133,1.779,1.705   C23.569,38.78,24.515,39.001,25.652,38.307z"></path><path d="M93.046,74.504c-0.774-0.231-1.59-0.325-2.389-0.466c-2.223-0.392-4.448-0.777-6.672-1.164   c-0.009,0.063-0.018,0.126-0.027,0.19c-0.53,0-1.069-0.064-1.587,0.014c-0.93,0.139-1.834,0.907-1.623,1.543   c0.367,1.107-0.231,1.664-0.835,2.353c-0.323,0.368-0.476,0.885-0.705,1.334c0.498,0.229,0.99,0.471,1.496,0.678   c0.117,0.048,0.283-0.045,0.425-0.038c1.779,0.084,3.565,0.095,5.332,0.287c1.336,0.146,2.582,0.179,3.717-0.665   c0.186-0.138,0.436-0.225,0.668-0.259c1.457-0.211,2.256-1.158,2.798-2.424C93.992,75.074,93.914,74.763,93.046,74.504z"></path><path d="M17.948,49.555c-0.443-0.269-0.948-0.434-1.765-0.796c0.368-0.239,0.563-0.317,0.69-0.456   c0.824-0.905,0.74-1.764-0.335-2.345c-1.563-0.845-3.143-1.678-4.783-2.354c-1.55-0.639-3.18-0.788-4.759,0.052   c-0.945,0.503-1.07,0.923-0.514,1.832c0.249,0.408,0.51,0.808,0.741,1.173c-0.615,1.383-0.564,1.653,0.56,2.073   c2.483,0.928,4.974,1.839,7.483,2.692c0.936,0.318,1.913,0.298,2.749-0.381C18.67,50.514,18.663,49.989,17.948,49.555z"></path><path d="M94.07,59.393c-0.65-0.152-1.33-0.231-1.999-0.243c-2.504-0.043-5.008-0.047-7.512-0.06   c-0.531-0.003-1.067-0.024-1.591,0.044c-0.422,0.054-0.863,0.164-1.233,0.365c-0.561,0.304-0.615,0.818-0.188,1.314   c0.164,0.191,0.399,0.321,0.575,0.458c-0.448,0.537-0.833,0.998-1.341,1.607c0.554,0.3,0.918,0.493,1.278,0.694   c0.199,0.111,0.53,0.206,0.564,0.361c0.234,1.052,1.049,1.015,1.811,0.975c1.2-0.063,2.418-0.102,3.589-0.341   c1.402-0.286,2.812-0.656,4.129-1.205c1.105-0.461,2.069-1.258,2.631-2.384C95.22,60.101,95.005,59.612,94.07,59.393z"></path><path d="M80.948,47.535c-1.342,0.379-1.296,0.578-1.011,2.024c0.079,0.4-0.165,0.892,0.354,1.127   c0.389,0.176,0.807,0.287,1.079,0.381c1.926-0.245,3.688-0.605,5.461-0.665c2.944-0.1,5.068-1.886,7.383-3.299   c0.546-0.333,0.725-0.906,0.56-1.52c-0.175-0.649-0.753-0.72-1.287-0.687c-1.104,0.069-2.231,0.09-3.302,0.334   C87.092,45.933,84.001,46.672,80.948,47.535z"></path><path d="M5.816,64.361c0.2,0.12,0.446,0.166,0.671,0.244c1.5,0.518,3.028,0.972,4.493,1.576c1.075,0.443,1.956,0.19,2.864-0.354   c0.526-0.315,1.064-0.618,1.625-0.862c0.582-0.253,0.896-0.605,0.597-1.228c-0.234-0.488-0.412-0.931-0.193-1.494   c0.086-0.222,0.013-0.675-0.154-0.798c-0.949-0.704-1.805-1.63-3.134-1.585c-2.009,0.068-4.021,0.095-6.024,0.244   c-0.509,0.038-1.159,0.348-1.442,0.747c-0.364,0.514,0.181,0.954,0.589,1.31c0.068,0.059,0.1,0.161,0.157,0.257   c-0.118,0.141-0.251,0.275-0.354,0.429C5.035,63.557,5.104,63.935,5.816,64.361z"></path><path d="M15.788,72.261c-1.475,0.1-2.988,0.22-4.392,0.639c-1.738,0.519-3.385,1.346-5.062,2.061   c-0.258,0.11-0.496,0.303-0.696,0.504c-0.547,0.551-0.464,1.201,0.248,1.497c0.525,0.218,1.111,0.321,1.68,0.397   c2.096,0.281,4.198,0.52,6.295,0.796c0.806,0.106,1.495-0.102,2.184-0.525c1.712-1.05,1.804-1.325,0.743-3.082   C17.396,72.967,17.067,72.175,15.788,72.261z"></path></g></g><g id="SvgjsG3272" featureKey="nameFeature-0" transform="matrix(1.3038825146010047,0,0,1.3038825146010047,82.39223497079799,-14.603485158314665)" fill="url(#SvgjsLinearGradient3278)"><path d="M34 29.2 l0 10.8 l-6 0 l0 -10.8 c0 -2.28 -1.08 -3.84 -3.48 -3.84 c-2.36 0 -3.52 1.6 -3.52 3.84 l0 10.8 l-6 0 l0 -10.8 c0 -2.28 -1.16 -3.84 -3.56 -3.84 c-2.36 0 -3.44 1.6 -3.44 3.84 l0 10.8 l-6 0 l0 -10.8 c0 -5.8 3.96 -9.4 9.52 -9.4 c2.84 0 5.04 1.32 6.48 3.76 c1.44 -2.44 3.64 -3.76 6.48 -3.76 c5.76 0 9.52 3.8 9.52 9.4 z M51.559999999999995 30 l0 -10 l6 0 l0 18.96 c0 6.36 -4.56 10.24 -10.6 10.24 c-2.12 0 -4.24 -0.2 -6.28 -0.88 l0 -6.16 c1.72 0.92 4.04 1.24 5.96 1.24 c2.16 0 3.88 -0.64 4.68 -2.72 c0.16 -0.56 0.24 -1.16 0.24 -1.76 l0 -0.92 c-1.36 1.52 -3.12 2.2 -5.12 2.2 c-5.68 0 -9.28 -4.88 -9.28 -10.2 l0 -10 l6 0 l0 10 c0 2.72 1.08 4.64 4 4.64 c2.84 0 4.4 -1.88 4.4 -4.64 z M72.84 20.68 l0 5.56 l-5.6 0 l0 3.76 c0 3.08 2.04 4.64 5 4.64 c0.36 0 0.68 -0.04 0.96 -0.08 s0.52 -0.08 0.8 -0.12 l0 5.56 c-0.36 0.04 -0.64 0.12 -0.84 0.16 c-0.24 0.04 -0.64 0.04 -1.16 0.04 c-6.04 0 -10.76 -4.12 -10.76 -10.2 l0 -14.8 l6 0 l0 5.48 l5.6 0 z M83.08 30 l0 10 l-6 0 l0 -28 l6 0 l0 9.84 c1.4 -1.48 3.16 -2.04 5.16 -2.04 c5.68 0 9.24 4.88 9.24 10.2 l0 10 l-6 0 l0 -10 c0 -2.72 -1.08 -4.64 -4 -4.64 c-2.88 0 -4.4 1.84 -4.4 4.64 z M100.96 20 l6 0 l0 20 l-6 0 l0 -20 z M103.96 18.12 c-2.04 0 -3.48 -1.44 -3.48 -3.48 c0 -2.08 1.44 -3.44 3.48 -3.44 c2.08 0 3.44 1.36 3.44 3.44 c0 2.12 -1.32 3.48 -3.44 3.48 z M126.88 33.4 l0 6 c-2.04 0.68 -4.16 0.88 -6.28 0.88 c-6.2 0 -10.6 -4.12 -10.6 -10.24 c0 -6.36 4.56 -10.24 10.6 -10.24 c2.12 0 4.24 0.2 6.28 0.88 l0 6 c-1.76 -0.92 -3.96 -1.16 -5.92 -1.16 c-1.32 0 -2.92 0.28 -3.84 1.32 c-0.84 0.84 -1.12 2.04 -1.12 3.16 c0 0.64 0.08 1.24 0.28 1.76 c0.16 0.56 0.44 1.04 0.84 1.44 c0.88 1.08 2.52 1.36 3.84 1.36 c1.76 0 4.36 -0.32 5.92 -1.16 z M140.83999999999997 30 l0 7.92 l-2.48 0 l0 -7.92 l-7.88 0 l0 -2.48 l7.88 0 l0 -7.88 l2.48 0 l0 7.88 l7.92 0 l0 2.48 l-7.92 0 z M167.4 30 c0 2.96 1.48 4.64 4.48 4.64 c0.84 0 1.6 -0.12 2.2 -0.4 c1.12 -0.44 1.88 -1.28 2.28 -2.44 c0.16 -0.56 0.24 -1.16 0.24 -1.8 s-0.08 -1.24 -0.24 -1.8 c-0.44 -1.24 -1.12 -1.92 -2.28 -2.48 c-0.6 -0.24 -1.36 -0.36 -2.2 -0.36 c-3 0 -4.48 1.68 -4.48 4.64 z M161.4 12 l6 0 l0 10 c1.36 -1.56 3.2 -2.2 5.24 -2.2 c5.84 0 9.96 4.68 9.96 10.28 c0 6.32 -4.68 10.12 -10.64 10.12 c-6.2 0 -10.56 -4.08 -10.56 -10.2 l0 -18 z M194.84 34.64 c2.92 0 4.6 -1.72 4.6 -4.64 s-1.68 -4.64 -4.6 -4.64 s-4.6 1.72 -4.6 4.64 s1.68 4.64 4.6 4.64 z M194.84 40.2 c-6.16 0 -10.6 -4.08 -10.6 -10.2 c0 -6.32 4.6 -10.2 10.6 -10.2 c6.2 0 10.6 4.08 10.6 10.2 c0 6.28 -4.64 10.2 -10.6 10.2 z M219.56 20.68 l0 5.56 l-5.6 0 l0 3.76 c0 3.08 2.04 4.64 5 4.64 c0.36 0 0.68 -0.04 0.96 -0.08 s0.52 -0.08 0.8 -0.12 l0 5.56 c-0.36 0.04 -0.64 0.12 -0.84 0.16 c-0.24 0.04 -0.64 0.04 -1.16 0.04 c-6.04 0 -10.76 -4.12 -10.76 -10.2 l0 -14.8 l6 0 l0 5.48 l5.6 0 z"></path></g>
			</g>
		</svg>
	